<mxfile host="Electron" modified="2024-05-01T16:08:15.942Z" agent="Mozilla/5.0 (Windows NT 10.0; Win64; x64) AppleWebKit/537.36 (KHTML, like Gecko) draw.io/22.0.0 Chrome/114.0.5735.289 Electron/25.8.3 Safari/537.36" etag="0xhFcq8kBgwpeqeCpShM" version="22.0.0" type="device">
  <diagram name="Страница — 1" id="lRYkO53lxAyvZOhlsfkW">
    <mxGraphModel dx="978" dy="566" grid="1" gridSize="10" guides="1" tooltips="1" connect="1" arrows="1" fold="1" page="1" pageScale="1" pageWidth="827" pageHeight="1169" math="0" shadow="0">
      <root>
        <mxCell id="0" />
        <mxCell id="1" parent="0" />
        <mxCell id="HFA8p05X3Zx10UzQE7VU-4" style="edgeStyle=orthogonalEdgeStyle;rounded=0;orthogonalLoop=1;jettySize=auto;html=1;exitX=0.5;exitY=1;exitDx=0;exitDy=0;" parent="1" source="HFA8p05X3Zx10UzQE7VU-6" edge="1">
          <mxGeometry relative="1" as="geometry">
            <mxPoint x="420.2413793103449" y="220" as="targetPoint" />
            <Array as="points">
              <mxPoint x="420" y="340" />
              <mxPoint x="420" y="340" />
            </Array>
          </mxGeometry>
        </mxCell>
        <mxCell id="HFA8p05X3Zx10UzQE7VU-1" value="Arr [], i,&amp;nbsp;Max, Min&amp;nbsp;" style="rounded=1;whiteSpace=wrap;html=1;" parent="1" vertex="1">
          <mxGeometry x="360" y="40" width="120" height="60" as="geometry" />
        </mxCell>
        <mxCell id="HFA8p05X3Zx10UzQE7VU-2" value="Min, Max" style="shape=document;whiteSpace=wrap;html=1;boundedLbl=1;" parent="1" vertex="1">
          <mxGeometry x="540" y="160" width="120" height="80" as="geometry" />
        </mxCell>
        <mxCell id="HFA8p05X3Zx10UzQE7VU-16" style="edgeStyle=orthogonalEdgeStyle;rounded=0;orthogonalLoop=1;jettySize=auto;html=1;exitX=0.25;exitY=1;exitDx=0;exitDy=0;entryX=0.5;entryY=0;entryDx=0;entryDy=0;" parent="1" source="HFA8p05X3Zx10UzQE7VU-11" target="HFA8p05X3Zx10UzQE7VU-15" edge="1">
          <mxGeometry relative="1" as="geometry" />
        </mxCell>
        <mxCell id="HFA8p05X3Zx10UzQE7VU-11" value="if Arr[Max] &amp;lt; Arr[i],&lt;br&gt;Max = i" style="shape=parallelogram;perimeter=parallelogramPerimeter;whiteSpace=wrap;html=1;fixedSize=1;" parent="1" vertex="1">
          <mxGeometry x="440" y="300" width="160" height="80" as="geometry" />
        </mxCell>
        <mxCell id="HFA8p05X3Zx10UzQE7VU-17" style="edgeStyle=orthogonalEdgeStyle;rounded=0;orthogonalLoop=1;jettySize=auto;html=1;exitX=0.75;exitY=1;exitDx=0;exitDy=0;" parent="1" source="HFA8p05X3Zx10UzQE7VU-12" edge="1">
          <mxGeometry relative="1" as="geometry">
            <mxPoint x="420" y="420" as="targetPoint" />
          </mxGeometry>
        </mxCell>
        <mxCell id="HFA8p05X3Zx10UzQE7VU-12" value="&amp;nbsp;if Arr[Min] &amp;gt; Arr[i]&lt;br&gt;Min = i" style="shape=parallelogram;perimeter=parallelogramPerimeter;whiteSpace=wrap;html=1;fixedSize=1;" parent="1" vertex="1">
          <mxGeometry x="240" y="300" width="160" height="80" as="geometry" />
        </mxCell>
        <mxCell id="HFA8p05X3Zx10UzQE7VU-13" value="" style="edgeStyle=orthogonalEdgeStyle;rounded=0;orthogonalLoop=1;jettySize=auto;html=1;exitX=0.5;exitY=1;exitDx=0;exitDy=0;" parent="1" source="HFA8p05X3Zx10UzQE7VU-1" target="HFA8p05X3Zx10UzQE7VU-6" edge="1">
          <mxGeometry relative="1" as="geometry">
            <mxPoint x="420.2413793103449" y="220" as="targetPoint" />
            <mxPoint x="420" y="60" as="sourcePoint" />
          </mxGeometry>
        </mxCell>
        <mxCell id="HFA8p05X3Zx10UzQE7VU-19" value="" style="edgeStyle=orthogonalEdgeStyle;rounded=0;orthogonalLoop=1;jettySize=auto;html=1;" parent="1" source="HFA8p05X3Zx10UzQE7VU-6" target="HFA8p05X3Zx10UzQE7VU-2" edge="1">
          <mxGeometry relative="1" as="geometry" />
        </mxCell>
        <mxCell id="HFA8p05X3Zx10UzQE7VU-6" value="for i &amp;lt; Arr.lenth" style="rhombus;whiteSpace=wrap;html=1;" parent="1" vertex="1">
          <mxGeometry x="360" y="140" width="120" height="120" as="geometry" />
        </mxCell>
        <mxCell id="HFA8p05X3Zx10UzQE7VU-14" value="" style="endArrow=classic;startArrow=classic;html=1;rounded=0;exitX=1;exitY=0.5;exitDx=0;exitDy=0;entryX=0;entryY=0.5;entryDx=0;entryDy=0;" parent="1" source="HFA8p05X3Zx10UzQE7VU-12" target="HFA8p05X3Zx10UzQE7VU-11" edge="1">
          <mxGeometry width="50" height="50" relative="1" as="geometry">
            <mxPoint x="460" y="300" as="sourcePoint" />
            <mxPoint x="510" y="250" as="targetPoint" />
            <Array as="points">
              <mxPoint x="420" y="340" />
            </Array>
          </mxGeometry>
        </mxCell>
        <mxCell id="HFA8p05X3Zx10UzQE7VU-18" style="edgeStyle=orthogonalEdgeStyle;rounded=0;orthogonalLoop=1;jettySize=auto;html=1;" parent="1" source="HFA8p05X3Zx10UzQE7VU-15" edge="1">
          <mxGeometry relative="1" as="geometry">
            <mxPoint x="360" y="200" as="targetPoint" />
            <Array as="points">
              <mxPoint x="220" y="450" />
              <mxPoint x="220" y="200" />
            </Array>
          </mxGeometry>
        </mxCell>
        <mxCell id="HFA8p05X3Zx10UzQE7VU-15" value="i++" style="shape=parallelogram;perimeter=parallelogramPerimeter;whiteSpace=wrap;html=1;fixedSize=1;" parent="1" vertex="1">
          <mxGeometry x="360" y="420" width="120" height="60" as="geometry" />
        </mxCell>
      </root>
    </mxGraphModel>
  </diagram>
</mxfile>
